<?xml version="1.0" standalone="no"?>
<!DOCTYPE svg PUBLIC "-//W3C//DTD SVG 1.1//EN" "http://www.w3.org/Graphics/SVG/1.1/DTD/svg11.dtd">
<svg width="100%" height="100%" viewBox="0 0 2480 1748" version="1.1" xmlns="http://www.w3.org/2000/svg" xmlns:xlink="http://www.w3.org/1999/xlink" xml:space="preserve" style="fill-rule:evenodd;clip-rule:evenodd;stroke-linejoin:round;stroke-miterlimit:1.41421;">
    <g id="Layer1">
        <g>
            <rect x="824.842" y="441.616" width="206.579" height="201.294" style="fill:rgb(235,235,235);"/>
            <rect x="824.842" y="655.74" width="206.579" height="201.294" style="fill:rgb(235,235,235);"/>
            <rect x="824.842" y="871.641" width="206.579" height="201.294" style="fill:rgb(235,235,235);"/>
            <rect x="824.842" y="1088.8" width="206.579" height="201.294" style="fill:rgb(235,235,235);"/>
            <rect x="1043.87" y="441.616" width="206.579" height="201.294" style="fill:rgb(235,235,235);"/>
            <rect x="1043.87" y="655.74" width="206.579" height="201.294" style="fill:rgb(235,235,235);"/>
            <rect x="1043.87" y="871.641" width="206.579" height="201.294" style="fill:rgb(235,235,235);"/>
            <rect x="1043.87" y="1088.8" width="206.579" height="201.294" style="fill:rgb(235,235,235);"/>
            <rect x="1264.43" y="441.616" width="206.579" height="201.294" style="fill:rgb(235,235,235);"/>
            <rect x="1264.43" y="655.74" width="206.579" height="201.294" style="fill:rgb(235,235,235);"/>
            <rect x="1264.43" y="871.641" width="206.579" height="201.294" style="fill:rgb(235,235,235);"/>
            <rect x="1264.43" y="1088.8" width="206.579" height="201.294" style="fill:rgb(235,235,235);"/>
            <rect x="1487.42" y="441.616" width="206.579" height="201.294" style="fill:rgb(235,235,235);"/>
            <rect x="1487.42" y="655.74" width="206.579" height="201.294" style="fill:rgb(235,235,235);"/>
            <rect x="1487.42" y="871.641" width="206.579" height="201.294" style="fill:rgb(235,235,235);"/>
            <rect x="1487.42" y="1088.8" width="206.579" height="201.294" style="fill:rgb(235,235,235);"/>
        </g>
    </g>
</svg>
